<svg width="175" height="33" viewBox="0 0 175 33" fill="none" xmlns="http://www.w3.org/2000/svg">
    <path
        d="M10.7437 0.244934H32.2918C34.2042 0.244934 35.6726 0.654724 36.7312 1.50845C37.7898 2.36218 38.3021 3.42081 38.3021 4.75263C38.3021 6.32349 37.5849 7.51871 36.1848 8.30415C37.1751 8.71394 37.9264 9.29447 38.4728 10.0799C38.9851 10.8653 39.2582 11.7191 39.2582 12.7094C39.2582 13.6997 38.9851 14.5876 38.4728 15.3389C37.9606 16.0902 37.2093 16.7049 36.219 17.1488C35.2286 17.5927 34.0334 17.7976 32.6675 17.7976H10.812L10.7437 0.244934ZM14.7391 7.07478H31.8479C32.6333 7.07478 33.2138 6.90403 33.6236 6.56254C34.0334 6.22105 34.2383 5.7771 34.2383 5.23072C34.2383 4.65018 34.0334 4.20624 33.6236 3.86475C33.2138 3.52326 32.5992 3.38666 31.8479 3.38666H14.7391V7.07478ZM14.7391 14.69H32.2235C33.1455 14.69 33.8627 14.4852 34.3408 14.0754C34.853 13.6656 35.092 13.1192 35.092 12.4362C35.092 11.7532 34.853 11.241 34.3408 10.797C33.8285 10.3872 33.1455 10.1824 32.2235 10.1824H14.7391V14.69Z"
        fill="#377DFF" />
    <path
        d="M42.332 5.50398C42.8101 4.4112 43.5272 3.48917 44.4492 2.66959C45.3712 1.85001 46.4299 1.23532 47.6934 0.791383C48.9569 0.347443 50.357 0.108398 51.8938 0.108398H64.9387C66.4755 0.108398 67.8756 0.347443 69.1391 0.791383C70.4026 1.23532 71.4954 1.88416 72.3833 2.66959C73.2712 3.45502 73.9883 4.4112 74.5005 5.50398C75.0128 6.59675 75.2518 7.75782 75.2518 9.02135C75.2518 10.2849 75.0128 11.4459 74.5005 12.5387C74.0224 13.6315 73.3053 14.5535 72.3833 15.3731C71.4613 16.1927 70.4026 16.8074 69.1391 17.2513C67.8756 17.6952 66.4755 17.9343 64.9387 17.9343H51.8938C50.357 17.9343 48.9569 17.6952 47.6934 17.2513C46.4299 16.8074 45.3371 16.1585 44.4492 15.3731C43.5613 14.5877 42.8442 13.6315 42.332 12.5387C41.8197 11.4459 41.5807 10.2849 41.5807 9.02135C41.5807 7.75782 41.8197 6.59675 42.332 5.50398ZM46.464 11.8899C46.9763 12.7436 47.6934 13.3924 48.6496 13.8705C49.6057 14.3486 50.6985 14.5877 51.9962 14.5877H64.8022C66.0998 14.5877 67.2267 14.3486 68.1488 13.8705C69.105 13.3924 69.8221 12.7436 70.3343 11.8899C70.8466 11.0361 71.1198 10.1141 71.1198 9.02135C71.1198 7.92857 70.8466 7.00654 70.3343 6.15281C69.8221 5.29908 69.0708 4.65025 68.1488 4.17216C67.1926 3.69407 66.0998 3.45502 64.8022 3.45502H51.9962C50.6985 3.45502 49.5716 3.69407 48.6496 4.17216C47.6934 4.65025 46.9763 5.29908 46.464 6.15281C45.9518 7.00654 45.6786 7.92857 45.6786 9.02135C45.6786 10.1141 45.9518 11.0361 46.464 11.8899Z"
        fill="#377DFF" />
    <path
        d="M78.4281 5.50398C78.9062 4.4112 79.6233 3.48917 80.5453 2.66959C81.4674 1.85001 82.526 1.23532 83.7895 0.791383C85.053 0.347443 86.4532 0.108398 87.9899 0.108398H101.035C102.572 0.108398 103.972 0.347443 105.235 0.791383C106.499 1.23532 107.592 1.88416 108.479 2.66959C109.367 3.45502 110.084 4.4112 110.597 5.50398C111.109 6.59675 111.348 7.75782 111.348 9.02135C111.348 10.2849 111.109 11.4459 110.597 12.5387C110.119 13.6315 109.401 14.5535 108.479 15.3731C107.557 16.1927 106.499 16.8074 105.235 17.2513C103.972 17.6952 102.572 17.9343 101.035 17.9343H87.9899C86.4532 17.9343 85.053 17.6952 83.7895 17.2513C82.526 16.8074 81.4332 16.1585 80.5453 15.3731C79.6575 14.5877 78.9403 13.6315 78.4281 12.5387C77.9158 11.4459 77.6768 10.2849 77.6768 9.02135C77.711 7.75782 77.95 6.59675 78.4281 5.50398ZM82.5943 11.8899C83.1065 12.7436 83.8578 13.3924 84.7799 13.8705C85.736 14.3486 86.8288 14.5877 88.1265 14.5877H100.932C102.23 14.5877 103.357 14.3486 104.279 13.8705C105.235 13.3924 105.952 12.7436 106.465 11.8899C106.977 11.0361 107.25 10.1141 107.25 9.02135C107.25 7.92857 106.977 7.00654 106.465 6.15281C105.952 5.29908 105.201 4.65025 104.279 4.17216C103.323 3.69407 102.23 3.45502 100.932 3.45502H88.1265C86.8288 3.45502 85.7019 3.69407 84.7799 4.17216C83.8237 4.65025 83.1065 5.29908 82.5943 6.15281C82.0821 7.00654 81.8089 7.92857 81.8089 9.02135C81.8089 10.1141 82.0821 11.0361 82.5943 11.8899Z"
        fill="#377DFF" />
    <path
        d="M116.094 12.4704C116.948 13.9046 118.451 14.6218 120.568 14.6218H136.413C137.301 14.6218 137.984 14.4169 138.462 14.0071C138.94 13.5973 139.145 13.085 139.145 12.4704C139.145 11.0702 138.189 10.3531 136.311 10.3531H120.295C119.065 10.3531 117.973 10.1482 117.051 9.73842C116.129 9.32863 115.411 8.71394 114.899 7.96266C114.387 7.21137 114.148 6.28935 114.148 5.26487C114.148 4.27454 114.387 3.38667 114.899 2.63538C115.411 1.84995 116.129 1.26941 117.119 0.825474C118.109 0.381534 119.27 0.176636 120.67 0.176636H136.345C137.745 0.176636 138.974 0.381532 139.999 0.791323C141.023 1.20111 141.945 1.84995 142.765 2.77198L140.17 5.19657C139.794 4.61604 139.316 4.17209 138.667 3.86475C138.018 3.55741 137.164 3.38667 136.106 3.38667H120.636C119.783 3.38667 119.168 3.55741 118.758 3.8989C118.348 4.2404 118.109 4.71848 118.109 5.26487C118.109 6.52839 118.997 7.14308 120.773 7.14308H136.857C138.121 7.14308 139.248 7.38212 140.204 7.82606C141.16 8.27 141.877 8.91884 142.389 9.70427C142.902 10.5239 143.175 11.4459 143.175 12.5728C143.175 13.6314 142.902 14.5535 142.389 15.373C141.877 16.1926 141.092 16.8415 140.067 17.2854C139.043 17.7635 137.813 17.9684 136.345 17.9684H120.568C118.895 17.9684 117.46 17.7293 116.299 17.2854C115.138 16.8415 114.114 16.0902 113.226 15.0657L116.094 12.4704Z"
        fill="#377DFF" />
    <path d="M161.855 17.7976H157.859V3.55741H144.678V0.244934H175.002V3.55741H161.855V17.7976Z" fill="#377DFF" />
    <path
        d="M88.9464 21.2468H92.1564L98.8155 30.0231H96.3226L94.8884 28.0766H86.1462L84.7119 30.0231H82.3215L88.9464 21.2468ZM93.7273 26.5399L91.0637 22.8859H89.9709L87.2731 26.5399H93.7273Z"
        fill="black" />
    <path
        d="M111.963 29.2376C111.963 30.0572 111.792 30.7402 111.45 31.2866C111.109 31.833 110.631 32.2428 110.016 32.4818C109.401 32.755 108.718 32.8916 107.933 32.8916H103.186C102.367 32.8916 101.684 32.7891 101.137 32.5842C100.591 32.3793 100.113 32.0379 99.7372 31.5939L101.103 30.3645C101.342 30.706 101.615 30.9451 101.957 31.1158C102.298 31.2866 102.708 31.3549 103.255 31.3549H107.831C108.548 31.3549 109.094 31.1841 109.47 30.8426C109.845 30.5011 110.05 30.0572 110.05 29.4767V29.1352C109.777 29.4084 109.47 29.6474 109.094 29.8182C108.718 29.9889 108.309 30.0572 107.796 30.0572H103.357C102.572 30.0572 101.889 29.9206 101.308 29.6133C100.727 29.3401 100.284 28.9303 99.9421 28.4522C99.6006 27.9741 99.464 27.3936 99.464 26.813C99.464 26.1983 99.6347 25.6861 99.9421 25.1739C100.249 24.6958 100.727 24.3201 101.308 24.0128C101.889 23.7054 102.572 23.5688 103.357 23.5688H107.796C108.274 23.5688 108.718 23.6372 109.094 23.8079C109.47 23.9786 109.777 24.1835 110.05 24.4909V23.6372H111.963V29.2376ZM101.445 26.7789C101.445 27.257 101.615 27.6668 101.957 27.9741C102.298 28.3156 102.776 28.4522 103.425 28.4522H108.07C108.684 28.4522 109.197 28.2814 109.504 27.9741C109.845 27.6668 110.016 27.257 110.016 26.7789C110.016 26.3008 109.845 25.891 109.504 25.5836C109.162 25.2763 108.684 25.1056 108.07 25.1056H103.425C102.811 25.1056 102.298 25.2763 101.957 25.5836C101.615 25.9251 101.445 26.3008 101.445 26.7789Z"
        fill="black" />
    <path
        d="M113.67 28.4863C113.363 27.9741 113.192 27.4277 113.192 26.8472C113.192 26.2325 113.363 25.6861 113.67 25.1739C113.977 24.6958 114.455 24.286 115.036 24.0128C115.616 23.7396 116.299 23.5688 117.085 23.5688H121.763C122.514 23.5688 123.197 23.7054 123.744 23.9786C124.29 24.2518 124.734 24.6616 125.007 25.1397C125.315 25.6178 125.451 26.1642 125.451 26.7789V27.2228H115.07C115.138 27.6326 115.377 28.0083 115.719 28.2473C116.06 28.5205 116.538 28.6229 117.153 28.6229H122.071C122.617 28.6229 123.027 28.5546 123.334 28.418C123.641 28.2814 123.88 28.0766 124.051 27.7692L125.246 28.8278C124.871 29.2718 124.427 29.5791 123.915 29.784C123.402 29.9889 122.719 30.0914 121.9 30.0914H117.051C116.265 30.0914 115.582 29.9548 115.002 29.6474C114.455 29.3742 113.977 28.9986 113.67 28.4863ZM115.172 25.9934H123.573C123.437 25.652 123.232 25.4129 122.89 25.208C122.549 25.0031 122.071 24.9007 121.49 24.9007H117.29C116.709 24.9007 116.265 25.0031 115.924 25.208C115.548 25.4129 115.309 25.652 115.172 25.9934Z"
        fill="black" />
    <path
        d="M126.613 23.6372H128.491V24.4567C128.73 24.1835 129.038 23.9445 129.413 23.8079C129.789 23.6713 130.233 23.5688 130.745 23.5688H135.014C135.902 23.5688 136.55 23.7737 136.994 24.2177C137.438 24.6616 137.677 25.2422 137.677 26.0276V30.023H135.799V26.3691C135.799 25.9593 135.697 25.6519 135.458 25.4129C135.219 25.1739 134.843 25.0714 134.297 25.0714H130.165C129.618 25.0714 129.208 25.208 128.901 25.4471C128.594 25.6861 128.457 26.0617 128.457 26.5057V29.9889H126.579L126.613 23.6372Z"
        fill="black" />
    <path
        d="M139.317 25.1739C139.624 24.6958 140.102 24.286 140.683 24.0128C141.263 23.7396 141.946 23.5688 142.731 23.5688H147.239C147.99 23.5688 148.639 23.6713 149.117 23.8762C149.63 24.0811 150.039 24.3884 150.381 24.8324L149.083 25.9934C148.912 25.6861 148.673 25.4812 148.366 25.3446C148.059 25.208 147.683 25.1397 147.171 25.1397H142.731C142.117 25.1397 141.605 25.3105 141.263 25.6178C140.922 25.9593 140.751 26.3691 140.751 26.8472C140.751 27.3253 140.922 27.7351 141.263 28.0765C141.605 28.418 142.083 28.5888 142.731 28.5888H147.171C147.683 28.5888 148.059 28.5205 148.366 28.3839C148.673 28.2473 148.912 28.0082 149.083 27.7351L150.381 28.8961C150.039 29.3401 149.63 29.6474 149.117 29.8523C148.605 30.0572 147.99 30.1597 147.239 30.1597H142.731C141.946 30.1597 141.263 30.023 140.683 29.7157C140.102 29.4084 139.658 29.0327 139.317 28.5546C138.975 28.0765 138.838 27.496 138.838 26.8813C138.838 26.2325 139.009 25.6861 139.317 25.1739Z"
        fill="black" />
    <path
        d="M156.869 32.7209H154.718L156.801 30.0231H155.674L150.961 23.6372H153.249L156.767 28.5547H157.825L161.309 23.6372H163.563L156.869 32.7209Z"
        fill="black" />
    <path
        d="M2.52486 12.5365L2.52003 11.7367L8.04697 13.9821L8.05158 14.7468L2.55208 17.0509L2.54716 16.2354L7.09715 14.3546L2.52486 12.5365ZM8.00908 7.70021L5.83012 9.35995L5.83499 10.1676L8.02388 10.1544L8.02831 10.888L2.51511 10.9212L2.50163 8.68549C2.49868 8.19647 2.65619 7.78712 2.97416 7.45744C3.29211 7.12516 3.6904 6.95758 4.16901 6.95469C4.61382 6.95201 4.99188 7.098 5.30321 7.39267C5.61192 7.68475 5.78324 8.0557 5.81717 8.50552L8.00374 6.81451L8.00908 7.70021ZM3.1974 10.1835L5.19511 10.1715L5.18614 8.68491C5.18445 8.40398 5.08809 8.17045 4.89708 7.98431C4.70606 7.79817 4.46749 7.70596 4.18136 7.70769C3.89523 7.70941 3.65779 7.80449 3.46903 7.99292C3.28027 8.18135 3.18674 8.41603 3.18844 8.69695L3.1974 10.1835Z"
        fill="#377DFF" />
</svg>